<?xml version="1.0" standalone="no"?>
<!DOCTYPE svg PUBLIC "-//W3C//DTD SVG 20010904//EN"
 "http://www.w3.org/TR/2001/REC-SVG-20010904/DTD/svg10.dtd">
<svg version="1.0" xmlns="http://www.w3.org/2000/svg"
 width="200.000000pt" height="200.000000pt" viewBox="0 0 200.000000 200.000000"
 preserveAspectRatio="xMidYMid meet">
<metadata>
Created by potrace 1.11, written by Peter Selinger 2001-2013
</metadata>
<g transform="translate(0.000000,200.000000) scale(0.100000,-0.100000)"
fill="#000000" stroke="none">
<path d="M819 1374 l-396 -396 -161 131 -162 131 0 -502 0 -503 660 660 c363
363 660 664 660 668 0 8 -154 164 -191 194 -13 10 -80 -53 -410 -383z"/>
<path d="M1250 1085 l-644 -644 24 -27 c14 -15 61 -62 105 -105 l80 -79 396
396 397 397 146 -149 146 -149 0 503 c0 276 -1 502 -2 502 -2 -1 -293 -291
-648 -645z"/>
</g>
</svg>
